<svg width="45" height="46" viewBox="0 0 45 46" fill="none" xmlns="http://www.w3.org/2000/svg">
<path d="M24.4276 4.29712C26.537 4.30274 27.6076 4.31399 28.532 4.34024L28.8957 4.35337C29.3157 4.36837 29.7301 4.38712 30.2307 4.40962C32.2257 4.50337 33.587 4.81837 34.7813 5.28149C36.0188 5.75774 37.0613 6.40274 38.1038 7.44337C39.0576 8.38037 39.7954 9.51425 40.2657 10.7659C40.7288 11.9602 41.0438 13.3215 41.1376 15.3184C41.1601 15.8171 41.1788 16.2315 41.1938 16.6534L41.2051 17.0171C41.2332 17.9396 41.2445 19.0102 41.2482 21.1196L41.2501 22.5184V24.9746C41.2547 26.3423 41.2403 27.7099 41.207 29.0771L41.1957 29.4409C41.1807 29.8627 41.162 30.2771 41.1395 30.7759C41.0457 32.7727 40.727 34.1321 40.2657 35.3284C39.7954 36.58 39.0576 37.7139 38.1038 38.6509C37.1668 39.6047 36.033 40.3425 34.7813 40.8127C33.587 41.2759 32.2257 41.5909 30.2307 41.6846L28.8957 41.7409L28.532 41.7521C27.6076 41.7784 26.537 41.7915 24.4276 41.7952L23.0288 41.7971H20.5745C19.2062 41.8019 17.8379 41.7876 16.4701 41.754L16.1063 41.7427C15.6612 41.7259 15.2162 41.7065 14.7713 41.6846C12.7763 41.5909 11.4151 41.2759 10.2188 40.8127C8.9679 40.3422 7.83467 39.6044 6.89821 38.6509C5.94374 37.7141 5.20529 36.5802 4.73447 35.3284C4.27134 34.134 3.95634 32.7727 3.86259 30.7759L3.80634 29.4409L3.79697 29.0771C3.7624 27.7099 3.74677 26.3423 3.75009 24.9746V21.1196C3.7449 19.752 3.75865 18.3844 3.79134 17.0171L3.80447 16.6534C3.81947 16.2315 3.83821 15.8171 3.86071 15.3184C3.95446 13.3215 4.26946 11.9621 4.73259 10.7659C5.20452 9.51374 5.94426 8.37981 6.90009 7.44337C7.836 6.49002 8.96857 5.75226 10.2188 5.28149C11.4151 4.81837 12.7745 4.50337 14.7713 4.40962C15.2701 4.38712 15.6863 4.36837 16.1063 4.35337L16.4701 4.34212C17.8373 4.30881 19.205 4.29443 20.5726 4.29899L24.4276 4.29712ZM22.5001 13.6721C20.0137 13.6721 17.6291 14.6598 15.871 16.418C14.1128 18.1761 13.1251 20.5607 13.1251 23.0471C13.1251 25.5335 14.1128 27.9181 15.871 29.6762C17.6291 31.4344 20.0137 32.4221 22.5001 32.4221C24.9865 32.4221 27.3711 31.4344 29.1292 29.6762C30.8874 27.9181 31.8751 25.5335 31.8751 23.0471C31.8751 20.5607 30.8874 18.1761 29.1292 16.418C27.3711 14.6598 24.9865 13.6721 22.5001 13.6721ZM22.5001 17.4221C23.2388 17.422 23.9703 17.5674 24.6528 17.8499C25.3353 18.1325 25.9554 18.5467 26.4778 19.069C27.0003 19.5912 27.4147 20.2113 27.6975 20.8937C27.9803 21.5761 28.1259 22.3075 28.126 23.0462C28.1262 23.7849 27.9808 24.5163 27.6982 25.1988C27.4156 25.8814 27.0014 26.5015 26.4792 27.0239C25.9569 27.5463 25.3369 27.9608 24.6545 28.2436C23.9721 28.5264 23.2407 28.672 22.502 28.6721C21.0101 28.6721 19.5794 28.0795 18.5245 27.0246C17.4696 25.9697 16.877 24.539 16.877 23.0471C16.877 21.5553 17.4696 20.1245 18.5245 19.0696C19.5794 18.0148 21.0101 17.4221 22.502 17.4221M32.3457 10.8596C31.7241 10.8596 31.128 11.1065 30.6884 11.5461C30.2489 11.9856 30.002 12.5818 30.002 13.2034C30.002 13.825 30.2489 14.4211 30.6884 14.8607C31.128 15.3002 31.7241 15.5471 32.3457 15.5471C32.9673 15.5471 33.5635 15.3002 34.003 14.8607C34.4425 14.4211 34.6895 13.825 34.6895 13.2034C34.6895 12.5818 34.4425 11.9856 34.003 11.5461C33.5635 11.1065 32.9673 10.8596 32.3457 10.8596Z" fill="#BEBEBE"/>
</svg>
