<svg width="40" height="41" viewBox="0 0 40 41" fill="none" xmlns="http://www.w3.org/2000/svg">
<path d="M19.9998 1.34717C9.39581 1.34717 0.799805 9.94317 0.799805 20.5472C0.799805 31.1512 9.39581 39.7472 19.9998 39.7472C30.6038 39.7472 39.1998 31.1512 39.1998 20.5472C39.1998 9.94317 30.6038 1.34717 19.9998 1.34717ZM15.2998 28.5052H11.4118V15.9932H15.2998V28.5052ZM13.3318 14.4572C12.1038 14.4572 11.3098 13.5872 11.3098 12.5112C11.3098 11.4132 12.1278 10.5692 13.3818 10.5692C14.6358 10.5692 15.4038 11.4132 15.4278 12.5112C15.4278 13.5872 14.6358 14.4572 13.3318 14.4572ZM29.4998 28.5052H25.6118V21.5712C25.6118 19.9572 25.0478 18.8612 23.6418 18.8612C22.5678 18.8612 21.9298 19.6032 21.6478 20.3172C21.5438 20.5712 21.5178 20.9312 21.5178 21.2892V28.5032H17.6278V19.9832C17.6278 18.4212 17.5778 17.1152 17.5258 15.9912H20.9038L21.0818 17.7292H21.1598C21.6718 16.9132 22.9258 15.7092 25.0238 15.7092C27.5818 15.7092 29.4998 17.4232 29.4998 21.1072V28.5052Z" fill="#BEBEBE"/>
</svg>
