<svg width="290" height="68" viewBox="0 0 290 68" fill="none" xmlns="http://www.w3.org/2000/svg">
<path d="M0 40.6122V4.27789H17.2782C24.3895 4.27789 27.9452 8.278 27.9452 13.8337C27.9452 17.3894 26.334 20.1672 23.5562 21.6672V21.7784C27.3896 23.1673 29.6119 26.3896 29.6119 30.6675C29.6119 36.3899 26.0007 40.6122 18.7227 40.6122H0ZM9.00024 18.5561H15.7782C18.1672 18.5561 19.0561 17.2227 19.0561 15.6115C19.0561 13.9448 18.3894 12.6115 15.7782 12.6115H9.00024V18.5561ZM9.00024 32.2786H16.8893C19.5005 32.2786 20.3894 30.8342 20.3894 29.0563C20.3894 27.2785 19.2227 25.7785 16.8893 25.7785H9.00024V32.2786Z" fill="black"/>
<path d="M47.0555 41.3344C40.9442 41.3344 33.7774 36.7788 33.7774 27.223C33.7774 18.3894 39.8887 12.4448 48.6111 12.4448C57.2225 12.4448 63.2226 18.1672 63.2226 27.1674V40.6122H55.5557V36.0565C54.1113 39.4455 51.0001 41.3344 47.0555 41.3344ZM48.5556 33.5565C52.3334 33.5565 54.8891 30.8342 54.8891 26.8896C54.8891 22.9451 52.3334 20.2228 48.5556 20.2228C44.7777 20.2228 42.2221 22.9451 42.2221 26.8896C42.2221 30.8342 44.7777 33.5565 48.5556 33.5565Z" fill="black"/>
<path d="M80.4119 41.3344C73.3561 41.3344 68.8005 37.5566 68.6893 32.2786H76.9118C76.9673 33.7231 78.0229 34.4454 80.3008 34.4454C82.8564 34.4454 83.6898 33.5565 83.6898 32.3898C83.6898 30.5564 81.6897 30.3897 79.1341 30.0008C75.3562 29.4452 69.1338 28.5008 69.1338 21.8895C69.1338 16.3338 73.5228 12.4448 80.3563 12.4448C87.1898 12.4448 91.4122 16.3893 91.5788 21.3339H83.4675C83.2453 20.0561 82.1342 19.3339 80.4674 19.3339C78.4118 19.3339 77.5785 20.3894 77.5785 21.5006C77.5785 23.1673 79.5785 23.3895 82.1342 23.7784C86.0787 24.334 92.1344 25.3896 92.1344 31.8897C92.1344 37.5566 87.4676 41.3344 80.4119 41.3344Z" fill="black"/>
<path d="M97.6051 52.3347V27.1674C97.6051 17.9449 103.827 12.4448 112.217 12.4448C120.939 12.4448 127.05 18.3894 127.05 27.223C127.05 36.7788 119.939 41.3344 113.717 41.3344C110.439 41.3344 107.661 40.0566 105.939 37.6121V52.3347H97.6051ZM112.272 33.5565C116.05 33.5565 118.606 30.8342 118.606 26.8896C118.606 22.9451 116.05 20.2228 112.272 20.2228C108.494 20.2228 105.939 22.9451 105.939 26.8896C105.939 30.8342 108.494 33.5565 112.272 33.5565Z" fill="black"/>
<path d="M137.573 10.667C134.517 10.667 132.239 8.38911 132.239 5.33347C132.239 2.27784 134.517 0 137.573 0C140.628 0 142.906 2.27784 142.906 5.33347C142.906 8.38911 140.628 10.667 137.573 10.667ZM133.406 40.6122V13.167H141.739V40.6122H133.406Z" fill="black"/>
<path d="M149.199 40.6122V26.3896C149.199 17.1671 154.644 12.4448 162.755 12.4448C170.867 12.4448 176.311 17.1116 176.311 26.3896V40.6122H167.978V26.3896C167.978 22.0561 165.866 20.2228 162.755 20.2228C159.644 20.2228 157.533 22.0561 157.533 26.3896V40.6122H149.199Z" fill="black"/>
<path d="M219.656 10.667C216.6 10.667 214.323 8.38911 214.323 5.33347C214.323 2.27784 216.6 0 219.656 0C222.712 0 224.99 2.27784 224.99 5.33347C224.99 8.38911 222.712 10.667 219.656 10.667ZM215.489 40.6122V13.167H223.823V40.6122H215.489Z" fill="black"/>
<path d="M231.283 40.6122V25.0007C231.283 16.4449 236.283 12.4448 243.616 12.4448C250.95 12.4448 255.894 16.3893 255.95 25.0562V25.2229H247.616V25.0007C247.616 21.3339 245.95 20.2228 243.616 20.2228C241.283 20.2228 239.616 21.3339 239.616 25.0007V40.6122H231.283Z" fill="black"/>
<path d="M275.222 41.3344C266.555 41.3344 260.444 35.2232 260.444 26.8896C260.444 18.5561 266.555 12.4448 275.222 12.4448C283.889 12.4448 290 18.5561 290 26.8896C290 35.2232 283.889 41.3344 275.222 41.3344ZM275.222 33.5565C279 33.5565 281.555 30.8342 281.555 26.8896C281.555 22.9451 279 20.2228 275.222 20.2228C271.444 20.2228 268.888 22.9451 268.888 26.8896C268.888 30.8342 271.444 33.5565 275.222 33.5565Z" fill="black"/>
<path fill-rule="evenodd" clip-rule="evenodd" d="M196.509 8.32644L196.925 8.34814L197.032 8.3556L197.138 8.36917C199.546 8.67441 201.825 9.62914 203.733 11.1294C205.522 12.5357 206.924 14.3725 207.811 16.4633L207.982 16.8852L207.994 16.915L208.005 16.9442C209.499 21.0211 209.599 25.4817 208.293 29.6215C206.656 35.3229 203.349 41.2613 199.124 46.6684C204.434 48.7897 208.961 47.935 212.26 45.3202C213.154 44.612 214.007 43.7373 214.795 42.6956H223.68C221.998 46.2147 219.755 49.1273 217.005 51.3072C210.487 56.4724 202.077 56.8161 193.862 52.65C193.182 53.3395 192.488 54.0133 191.785 54.6676C184.354 61.5757 175.031 67.075 166.13 67.3382L165.707 67.347H165.705C157.57 67.4307 150.609 65.2225 145.089 60.909C139.765 56.7486 136.046 50.8382 133.807 43.7875L133.595 43.1018L133.543 42.9119C133.525 42.84 133.51 42.7676 133.497 42.6956H141.499C143.382 48.0008 146.194 52.0783 149.793 54.8901C153.762 57.9917 158.97 59.776 165.624 59.7079L165.917 59.7018C172.094 59.513 179.696 55.4748 186.583 49.0726C186.866 48.8091 187.146 48.5413 187.424 48.2723C181.576 42.8307 177.597 33.6015 180.124 22.7094C180.928 19.2153 183.055 15.625 185.822 12.9442C188.484 10.3648 192.229 8.17636 196.509 8.32644ZM196.303 15.9655C194.812 15.8945 192.962 16.6636 191.138 18.4307C189.3 20.2113 188.002 22.5335 187.568 24.4259L187.566 24.4368C185.706 32.4507 188.63 38.9359 192.575 42.6332C196.571 37.6661 199.58 32.31 200.96 27.4825L200.976 27.4249L200.994 27.3686C201.805 24.8338 201.75 22.098 200.84 19.5986C200.458 18.6257 199.827 17.7754 199.013 17.1354C198.223 16.5145 197.288 16.1127 196.303 15.9655Z" fill="#A9A7E5"/>
</svg>
